# xmcd
#
# Track frame offsets:
#	150
#	16275
#	30600
#	43650
#	61950
#	81675
#	102525
#	122550
#	138900
#	159975
#	175425
#	191850
#	210525
#	229725
#	246075
#	262050
#
# Disc length: 3515 seconds
#
# Revision: 0
# Processed by: cddbd v1.5.2PL0 Copyright (c) Steve Scherf et al.
# Submitted via: audiograbber 1.83.01
#
DISCID=e50db910
DTITLE=Big Country - BCY013
DYEAR=2008
DGENRE=Karaoke
TTITLE0=Carrie Underwood - All American Girl
TTITLE1=Toby Keith - Get My Drink On
TTITLE2=Taylor Swift - Picture To Burn
TTITLE3=Taylor Swift - Should've Said No
TTITLE4=Kenny Chesney - Don't Blink
TTITLE5=Kenny Chesney - Shiftwork
TTITLE6=Keith Urban - Everybody
TTITLE7=Blake Shelton - More I Drink
TTITLE8=Brad Paisley - Letter To Me
TTITLE9=Josh Turner - Firecracker
TTITLE10=Faith Hill - Red Umbrella
TTITLE11=Faith Hill - Lost
TTITLE12=Alan Jackson - Woman's Love
TTITLE13=Tracy Lawrence - Find Out Who Your Friends Are
TTITLE14=Billy Currington - Good Directions
TTITLE15=Blank Track - Blank Track
EXTD=
EXTT0=
EXTT1=
EXTT2=
EXTT3=
EXTT4=
EXTT5=
EXTT6=
EXTT7=
EXTT8=
EXTT9=
EXTT10=
EXTT11=
EXTT12=
EXTT13=
EXTT14=
EXTT15=
PLAYORDER=
